<?xml version="1.0" encoding="UTF-8" standalone="no"?>
<svg width="500" height="500" viewBox="0 0 500 500" xmlns="http://www.w3.org/2000/svg">
  <!-- Basic face texture -->
  <defs>
    <radialGradient id="skin" cx="50%" cy="50%" r="50%" fx="50%" fy="50%">
      <stop offset="0%" style="stop-color:#f4e4c7;stop-opacity:1" />
      <stop offset="100%" style="stop-color:#ddc49a;stop-opacity:1" />
    </radialGradient>
  </defs>
  
  <!-- Face background -->
  <ellipse cx="250" cy="250" rx="225" ry="235" fill="url(#skin)" />
  
  <!-- Subtle facial contours -->
  <path d="M 150,250 C 200,320 300,320 350,250" fill="none" stroke="#b5a082" stroke-width="2" opacity="0.3" />
  <path d="M 180,200 C 200,180 230,170 250,170 C 270,170 300,180 320,200" fill="none" stroke="#b5a082" stroke-width="2" opacity="0.2" />
  
  <!-- Additional subtle texture elements -->
  <circle cx="250" cy="250" r="180" fill="none" stroke="#c4b190" stroke-width="1" opacity="0.2" />
  <circle cx="250" cy="250" r="160" fill="none" stroke="#c4b190" stroke-width="1" opacity="0.15" />
  <circle cx="250" cy="250" r="140" fill="none" stroke="#c4b190" stroke-width="1" opacity="0.1" />
  
  <!-- Mystical symbols subtly added to the texture -->
  <g opacity="0.05">
    <path d="M 250,100 L 260,120 L 240,120 Z" fill="#000" />
    <path d="M 200,380 L 215,400 L 185,400 Z" fill="#000" />
    <path d="M 300,380 L 315,400 L 285,400 Z" fill="#000" />
    <circle cx="250" cy="200" r="10" fill="none" stroke="#000" stroke-width="1" />
    <circle cx="250" cy="300" r="15" fill="none" stroke="#000" stroke-width="1" />
    <line x1="220" y1="330" x2="280" y2="330" stroke="#000" stroke-width="1" />
  </g>
</svg>